<?xml version="1.0" encoding="utf-8"?>
<!-- Generator: Adobe Illustrator 21.1.0, SVG Export Plug-In . SVG Version: 6.00 Build 0)  -->
<svg version="1.1" id="Capa_1" xmlns="http://www.w3.org/2000/svg" xmlns:xlink="http://www.w3.org/1999/xlink" x="0px" y="0px"
	 viewBox="0 0 287.2 233.4" style="enable-background:new 0 0 287.2 233.4;" xml:space="preserve">
<style type="text/css">
	.st0{fill:#303D4D;}
</style>
<g>
	<g>
		<path class="st0" d="M257.8,58.1c0.1,2.5,0.2,5.1,0.2,7.7c0,77.9-59.3,167.6-167.7,167.6c-33.3,0-64.3-9.7-90.3-26.4
			c4.6,0.5,9.3,0.8,14.1,0.8c27.6,0,53-9.4,73.2-25.2c-25.8-0.5-47.5-17.5-55-40.9c3.6,0.7,7.3,1.1,11.1,1.1
			c5.4,0,10.6-0.7,15.5-2.1c-27-5.4-47.3-29.2-47.3-57.8c0-0.2,0-0.5,0-0.7c7.9,4.4,17,7.1,26.7,7.4C22.4,78.9,12,60.8,12,40.4
			c0-10.8,2.9-20.9,8-29.6c29,35.7,72.5,59.1,121.4,61.6c-1-4.3-1.5-8.8-1.5-13.4c0-32.5,26.4-58.9,58.9-58.9c17,0,32.2,7.2,43,18.6
			c13.4-2.6,26-7.5,37.4-14.3c-4.4,13.8-13.7,25.3-25.9,32.6c11.9-1.4,23.3-4.6,33.8-9.3C279.3,39.4,269.3,49.8,257.8,58.1z"/>
	</g>
</g>
</svg>
