<?xml version="1.0" encoding="utf-8"?>
<!-- Generator: Adobe Illustrator 19.1.0, SVG Export Plug-In . SVG Version: 6.00 Build 0)  -->
<!DOCTYPE svg PUBLIC "-//W3C//DTD SVG 1.1//EN" "http://www.w3.org/Graphics/SVG/1.1/DTD/svg11.dtd">
<svg version="1.1" id="Layer_1" xmlns="http://www.w3.org/2000/svg" xmlns:xlink="http://www.w3.org/1999/xlink" x="0px" y="0px"
	 viewBox="0 0 27.9 30" style="enable-background:new 0 0 27.9 30;" xml:space="preserve">
<style type="text/css">
	.st0{fill:#C42576;}
</style>
<path class="st0" d="M27.6,16.4L14.8,29.1c0,0,0,0,0,0L14,30l-0.9-0.9c0,0,0,0,0,0L0.4,16.4c-0.5-0.5-0.5-1.3,0-1.8
	c0.5-0.5,1.3-0.5,1.8,0l10.6,10.6v-24C12.7,0.6,13.3,0,14,0c0.7,0,1.2,0.6,1.2,1.2v24l10.6-10.6c0.5-0.5,1.3-0.5,1.8,0
	C28.1,15.1,28.1,15.9,27.6,16.4z"/>
</svg>
