<?xml version="1.0" encoding="utf-8"?>
<!-- Generator: Adobe Illustrator 19.1.0, SVG Export Plug-In . SVG Version: 6.00 Build 0)  -->
<!DOCTYPE svg PUBLIC "-//W3C//DTD SVG 1.1//EN" "http://www.w3.org/Graphics/SVG/1.1/DTD/svg11.dtd">
<svg version="1.1" id="Layer_1" xmlns="http://www.w3.org/2000/svg" xmlns:xlink="http://www.w3.org/1999/xlink" x="0px" y="0px"
	 viewBox="0 0 40 40" style="enable-background:new 0 0 40 40;" xml:space="preserve">
<style type="text/css">
	.st0{fill:#FFFFFF;}
	.st1{fill:#656F76;}
</style>
<g>
	<path d="M2220.8,2565.8c0-102,0-204,0-306c0.3-0.8,0.6-1.6,0.8-2.5c4-18.6,15.2-30.4,33.6-35.3c1.5-0.4,3.1-0.8,4.7-1.2
		c102,0,204,0,306,0c0.7,0.2,1.4,0.6,2.1,0.7c18.8,3.8,30.7,15.1,35.7,33.6c0.4,1.6,0.8,3.1,1.2,4.7c0,102,0,204,0,306
		c-0.3,0.8-0.6,1.6-0.7,2.5c-3.3,17.8-16.7,31.8-34.3,35.5c-1.3,0.3-2.6,0.6-3.9,1c-102,0-204,0-306,0c-0.7-0.2-1.4-0.6-2.1-0.7
		c-18-3.2-31.7-16.2-35.8-34C2221.5,2568.6,2221.1,2567.2,2220.8,2565.8z M2265.2,2383.4c-0.1,1.3-0.2,2.3-0.2,3.3
		c0,52.7,0,105.5,0,158.2c0,9.6,6.4,15.6,16.2,15.6c87.6,0,175.2,0,262.8,0c10.4,0,16.4-6.1,16.4-16.6c0-52.1,0-104.2,0-156.3
		c0-1.3,0-2.7,0-4.1c-11.3,0-22.1,0-33.3,0c8.2,36.5,2.4,70.2-20,100c-22.5,29.9-53,45.8-90.5,47.2c-31.4,1.2-59.3-8.6-82.4-29.8
		c-34.8-31.8-45.8-71.5-36.3-117.5C2287,2383.4,2276.3,2383.4,2265.2,2383.4z M2486.6,2412.9c0.2-40.7-32.9-73.9-73.8-74
		c-40.7-0.1-73.6,32.6-73.9,73.5c-0.4,40.7,32.7,73.9,73.6,74.2C2453.2,2486.9,2486.4,2453.8,2486.6,2412.9z M2523.8,2265
		c-7.1,0-14.2,0-21.4,0c-9.4,0.1-15.7,5.9-15.8,15.3c-0.2,14.5-0.2,29,0,43.5c0.1,9.1,6,15,15.1,15.2c14.5,0.2,29,0.2,43.5,0
		c9.4-0.1,15.3-6.4,15.3-15.8c0-14.1,0-28.2,0-42.4c0-9.5-6.2-15.7-15.7-15.8C2537.8,2264.9,2530.8,2265,2523.8,2265z"/>
	<path class="st0" d="M2220.8,2565.8c0.4,1.4,0.8,2.9,1.1,4.3c4.1,17.7,17.8,30.7,35.8,34c0.7,0.1,1.4,0.5,2.1,0.7c-13,0-26,0-39,0
		C2220.8,2591.8,2220.8,2578.8,2220.8,2565.8z"/>
	<path class="st0" d="M2565.8,2604.8c1.3-0.3,2.6-0.7,3.9-1c17.6-3.8,31-17.7,34.3-35.5c0.2-0.8,0.5-1.7,0.7-2.5c0,13,0,26,0,39
		C2591.8,2604.8,2578.8,2604.8,2565.8,2604.8z"/>
	<path class="st0" d="M2259.8,2220.8c-1.6,0.4-3.1,0.8-4.7,1.2c-18.4,5-29.6,16.7-33.6,35.3c-0.2,0.8-0.5,1.7-0.8,2.5
		c0-12.9,0-25.9,0-39C2233.7,2220.8,2246.7,2220.8,2259.8,2220.8z"/>
	<path class="st0" d="M2604.8,2259.8c-0.4-1.6-0.8-3.1-1.2-4.7c-5-18.5-16.9-29.8-35.7-33.6c-0.7-0.1-1.4-0.5-2.1-0.7
		c13,0,26,0,39,0C2604.8,2233.8,2604.8,2246.8,2604.8,2259.8z"/>
	<path class="st0" d="M2265.2,2383.4c11.2,0,21.9,0,32.9,0c-9.6,46,1.5,85.7,36.3,117.5c23.1,21.2,51,31,82.4,29.8
		c37.5-1.4,67.9-17.3,90.5-47.2c22.5-29.8,28.3-63.5,20-100c11.1,0,21.9,0,33.3,0c0,1.4,0,2.8,0,4.1c0,52.1,0,104.2,0,156.3
		c0,10.5-6,16.6-16.4,16.6c-87.6,0-175.2,0-262.8,0c-9.9,0-16.2-6.1-16.2-15.6c0-52.7,0-105.5,0-158.2
		C2265,2385.7,2265.1,2384.7,2265.2,2383.4z"/>
	<path class="st0" d="M2486.6,2412.9c-0.2,40.9-33.4,74-74.1,73.7c-41-0.3-74-33.5-73.6-74.2c0.4-40.9,33.2-73.6,73.9-73.5
		C2453.7,2338.9,2486.8,2372.1,2486.6,2412.9z"/>
	<path class="st0" d="M2523.8,2265c7,0,14-0.1,21,0c9.5,0.1,15.7,6.3,15.7,15.8c0,14.1,0,28.2,0,42.4c0,9.4-5.9,15.7-15.3,15.8
		c-14.5,0.2-29,0.2-43.5,0c-9.1-0.1-15-6.1-15.1-15.2c-0.2-14.5-0.2-29,0-43.5c0.1-9.4,6.4-15.2,15.8-15.3
		C2509.5,2264.9,2516.7,2265,2523.8,2265z"/>
</g>
<g>
	<path class="st1" d="M20,24c2.2,0,4.1-1.8,4.1-4c0-2.2-1.8-4.1-4-4.1c-2.2,0-4,1.8-4.1,4C15.9,22.2,17.7,24,20,24z"/>
	<path class="st1" d="M24.9,16c0.8,0,1.6,0,2.4,0c0.5,0,0.8-0.4,0.8-0.9c0-0.8,0-1.5,0-2.3c0-0.5-0.3-0.9-0.9-0.9
		c-0.4,0-0.8,0-1.2,0c-0.4,0-0.8,0-1.2,0c-0.5,0-0.9,0.3-0.9,0.8c0,0.8,0,1.6,0,2.4C24.1,15.6,24.4,15.9,24.9,16z"/>
	<path class="st1" d="M25.2,23.9c-1.2,1.6-2.9,2.5-5,2.6c-1.7,0.1-3.2-0.5-4.5-1.6c-1.9-1.7-2.5-3.9-2-6.4c-0.6,0-1.2,0-1.8,0
		c0,0.1,0,0.1,0,0.2c0,2.9,0,5.8,0,8.7c0,0.5,0.3,0.9,0.9,0.9c4.8,0,9.6,0,14.4,0c0.6,0,0.9-0.3,0.9-0.9c0-2.9,0-5.7,0-8.6
		c0-0.1,0-0.1,0-0.2c-0.6,0-1.2,0-1.8,0C26.7,20.4,26.4,22.2,25.2,23.9z"/>
	<path class="st1" d="M20,0C9,0,0,9,0,20s9,20,20,20s20-9,20-20S31,0,20,0z M30.5,28.4c0,0,0,0.1,0,0.1c-0.2,1-0.9,1.7-1.9,1.9
		c-0.1,0-0.1,0-0.2,0.1c-5.6,0-11.2,0-16.8,0c0,0-0.1,0-0.1,0c-1-0.2-1.7-0.9-2-1.9c0-0.1,0-0.2-0.1-0.2c0-5.6,0-11.2,0-16.8
		c0,0,0-0.1,0-0.1c0.2-1,0.8-1.7,1.8-1.9c0.1,0,0.2,0,0.3-0.1c5.6,0,11.2,0,16.8,0c0,0,0.1,0,0.1,0c1,0.2,1.7,0.8,2,1.8
		c0,0.1,0,0.2,0.1,0.3C30.5,17.2,30.5,22.8,30.5,28.4z"/>
</g>
</svg>
