<?xml version="1.0" encoding="utf-8"?>
<!-- Generator: Adobe Illustrator 19.1.0, SVG Export Plug-In . SVG Version: 6.00 Build 0)  -->
<!DOCTYPE svg PUBLIC "-//W3C//DTD SVG 1.1//EN" "http://www.w3.org/Graphics/SVG/1.1/DTD/svg11.dtd">
<svg version="1.1" id="Layer_1" xmlns="http://www.w3.org/2000/svg" xmlns:xlink="http://www.w3.org/1999/xlink" x="0px" y="0px"
	 viewBox="0 0 543.8 150.5" style="enable-background:new 0 0 543.8 150.5;" xml:space="preserve">
<style type="text/css">
	.st0{fill:#DAD9CC;}
</style>
<g>
	<path class="st0" d="M188.1,18.9h14c5.6,0,10.3,0.5,14,2.5c4.1,2.1,7.6,6.2,7.6,12.6c0,5.8-2.8,10-6.8,12.3
		c-3.6,2.1-8.3,2.9-15.2,2.9h-3.3V66h-10.3V18.9z M202.2,40.7c4.1,0,6.4-0.2,8.2-1.2c1.9-1,2.9-2.8,2.9-5.1c0-2.7-1.2-4.6-3.3-5.5
		c-1.9-0.8-4.4-1-8.1-1h-3.5v12.8H202.2z"/>
	<path class="st0" d="M227.4,33.9h9.7v4.3l0.1,0.1c2.2-3.1,5.3-4.7,9.3-4.7c0.7,0,1.4,0.1,2.1,0.3v9.3c-0.8-0.2-1.8-0.3-2.7-0.3
		c-3.4,0-6.3,1-8.7,3.8V66h-9.9V33.9z"/>
	<path class="st0" d="M268.4,33.2c10.2,0,17.8,7.3,17.8,16.7c0,9.4-7.6,16.7-17.8,16.7c-10.2,0-17.8-7.3-17.8-16.7
		C250.6,40.5,258.2,33.2,268.4,33.2z M268.4,58.2c4.5,0,7.9-3.6,7.9-8.2c0-4.6-3.4-8.2-7.9-8.2c-4.5,0-7.9,3.6-7.9,8.2
		C260.4,54.5,263.9,58.2,268.4,58.2z"/>
	<path class="st0" d="M293.8,69.3c3.3,2,7,3.3,10.3,3.3c4.8,0,7.8-2.5,7.8-7.2v-1.8l-0.1-0.1c-1.9,1.4-4.8,2.1-7.5,2.1
		c-7.7,0-14.9-6-14.9-15.7c0-9.4,6.7-16.7,16.7-16.7c3.1,0,5.7,0.7,8,1.8l7.7-1.4v31.6c0,10.1-6.9,15.7-17.1,15.7
		c-4.1,0-8.1-1-10.9-2.3V69.3z M311.9,42.8c-1.2-0.7-3.1-1.2-4.9-1.2c-5.1,0-7.6,3.8-7.6,7.9c0,4.7,2.9,8,7.5,8c1.8,0,3.6-0.5,5-1.4
		V42.8z"/>
	<path class="st0" d="M327.5,33.9h9.7v4.3l0.1,0.1c2.2-3.1,5.3-4.7,9.3-4.7c0.7,0,1.4,0.1,2.1,0.3v9.3c-0.8-0.2-1.8-0.3-2.7-0.3
		c-3.4,0-6.3,1-8.7,3.8V66h-9.9V33.9z"/>
	<path class="st0" d="M360.8,52.6c1.1,4.4,4.7,6.4,9.3,6.4c3.6,0,7.5-1.2,10.9-3.5v8.3c-3.1,2-7.9,2.9-12.2,2.9
		c-10.5,0-18.2-6.6-18.2-16.6c0-10.2,7.9-16.9,16.8-16.9c7.9,0,15.3,5.2,15.3,15.9c0,1.1-0.1,2.5-0.2,3.4H360.8z M373.6,46.3
		c-0.6-3.4-3.1-5.5-6.3-5.5c-3.1,0-5.7,1.9-6.6,5.5H373.6z"/>
	<path class="st0" d="M387.6,55.4c4.4,2.6,9.6,3.7,12.6,3.7c2.7,0,4.4-0.7,4.4-2.5c0-2.5-3.6-2.2-8.4-3.4c-6.1-1.5-9.6-4-9.6-9.3
		c0.1-6.8,6.1-10.6,14-10.6c3.8,0,8.6,0.8,12.2,2.5v8.5c-4.2-2.4-9.2-3.4-12-3.4c-2.6,0-4.2,0.8-4.2,2.3c0,2.3,3.4,2.1,8.2,3.3
		c6.1,1.5,9.8,3.8,9.8,9.4c-0.1,7-6.2,10.9-14.4,10.9c-3.8,0-8.8-0.8-12.6-2.7V55.4z"/>
	<path class="st0" d="M419,55.4c4.4,2.6,9.6,3.7,12.6,3.7c2.7,0,4.4-0.7,4.4-2.5c0-2.5-3.6-2.2-8.4-3.4c-6.1-1.5-9.6-4-9.6-9.3
		c0.1-6.8,6.1-10.6,14-10.6c3.8,0,8.6,0.8,12.2,2.5v8.5c-4.2-2.4-9.2-3.4-12-3.4c-2.6,0-4.2,0.8-4.2,2.3c0,2.3,3.4,2.1,8.2,3.3
		c6.1,1.5,9.8,3.8,9.8,9.4c-0.1,7-6.2,10.9-14.4,10.9c-3.8,0-8.8-0.8-12.6-2.7V55.4z"/>
	<path class="st0" d="M455.3,18.1c3.1,0,5.7,2.5,5.7,5.7s-2.6,5.7-5.7,5.7c-3.1,0-5.7-2.5-5.7-5.7S452.2,18.1,455.3,18.1z
		 M450.4,33.9h9.9v32h-9.9V33.9z"/>
	<path class="st0" d="M463.6,33.9H474l3.8,10.3c1.2,3.4,2.5,6.9,3.6,10.2h0.1c1.2-3.3,2.5-6.9,3.8-10.2l4-10.2h9.8l-13,32h-9.4
		L463.6,33.9z"/>
	<path class="st0" d="M509.2,52.6c1.1,4.4,4.7,6.4,9.3,6.4c3.6,0,7.5-1.2,10.9-3.5v8.3c-3.1,2-7.9,2.9-12.2,2.9
		c-10.5,0-18.2-6.6-18.2-16.6c0-10.2,7.9-16.9,16.8-16.9c7.9,0,15.3,5.2,15.3,15.9c0,1.1-0.1,2.5-0.2,3.4H509.2z M522,46.3
		c-0.6-3.4-3.1-5.5-6.3-5.5c-3.1,0-5.7,1.9-6.6,5.5H522z"/>
	<path class="st0" d="M188.1,84.5h14c5.6,0,10.3,0.5,14,2.5c4.1,2.1,7.6,6.2,7.6,12.6c0,5.8-2.8,10-6.8,12.3
		c-3.6,2.1-8.3,2.9-15.2,2.9h-3.3v16.9h-10.3V84.5z M202.2,106.4c4.1,0,6.4-0.2,8.2-1.2c1.9-1,2.9-2.8,2.9-5.1
		c0-2.7-1.2-4.6-3.3-5.5c-1.9-0.8-4.4-1-8.1-1h-3.5v12.8H202.2z"/>
	<path class="st0" d="M248.8,128.6c-2.5,2.1-5.6,3.8-9.8,3.8c-3.7,0-6.5-1.3-8.3-3.2c-2.1-2.1-3.1-5.1-3.1-9.8V99.6h9.9v18.2
		c0,2.3,0.4,3.7,1.2,4.6c0.8,1,2.1,1.4,3.5,1.4c2.5,0,4.9-1.4,6.5-2.9V99.6h9.9v32H249v-3L248.8,128.6z"/>
	<path class="st0" d="M264.7,99.6h9.8v2.9l0.1,0.1c2.5-2,5.9-3.7,9.9-3.7c3.4,0,6.4,1.2,8.4,3.3c2,2.1,2.8,4.9,2.8,9.5v20h-9.9
		v-18.3c0-2.4-0.3-3.6-1.1-4.5c-0.8-1-2-1.4-3.4-1.4c-2.5,0-4.9,1.3-6.7,2.7v21.5h-9.9V99.6z"/>
	<path class="st0" d="M328.1,129.9c-3.1,1.7-6.8,2.5-10.5,2.5c-10.3,0-17.8-7-17.8-16.7c0-10.1,8.3-16.8,18.3-16.8
		c3.6,0,6.9,0.8,9.5,2.1v9.2c-2.9-1.8-6-3-9-3c-5.3,0-8.9,3.6-8.9,8.4c0,4.9,3.7,8.3,9,8.3c3.1,0,6.7-1.2,9.4-3.2V129.9z"/>
	<path class="st0" d="M355.2,130.6c-1.5,1-4.4,1.8-7.2,1.8c-3.3,0-6.3-1-8.3-3.2c-1.7-1.8-2.8-4.5-2.8-9.6v-11.8h-5.2v-8.2h5.2v-8.3
		l9.9-1.7v10h8.5v8.2h-8.5v10.7c0,3.1,0.7,5.5,3.7,5.5c1.6,0,3.4-0.7,4.7-1.3V130.6z"/>
	<path class="st0" d="M381.5,128.6c-2.5,2.1-5.6,3.8-9.8,3.8c-3.7,0-6.5-1.3-8.3-3.2c-2.1-2.1-3.1-5.1-3.1-9.8V99.6h9.9v18.2
		c0,2.3,0.4,3.7,1.2,4.6c0.8,1,2.1,1.4,3.5,1.4c2.5,0,4.9-1.4,6.5-2.9V99.6h9.9v32h-9.8v-3L381.5,128.6z"/>
	<path class="st0" d="M416,129.7c-2.1,1.5-5.3,2.7-8.9,2.7c-2.7,0-5.3-0.7-7.4-2.1c-2.3-1.6-3.8-4.2-3.8-7.5c0-3.5,1.6-6.2,3.9-7.7
		c2.5-1.7,5.7-2.3,9-2.3c1.9,0,3.8,0.2,5.5,0.6v-1.2c0-1.6-0.5-2.7-1.2-3.4c-0.9-0.8-2.6-1.4-4.9-1.4c-3.6,0-6.8,1.2-9.4,2.5v-8.5
		c2.6-1.3,6.5-2.5,11.2-2.5c4.3,0,8.1,1,10.7,3.1c2.4,2,3.6,4.8,3.6,8.8v10.9c0,1.5,0.6,2.5,2,2.5c0.5,0,1.1-0.1,1.6-0.4v7.4
		c-1.1,0.6-2.9,1-4.7,1c-2.6,0-5.1-0.7-6.9-2.5H416z M414.3,119.1c-1-0.3-2.5-0.5-3.5-0.5c-2.5,0-5.1,0.8-5.1,3.3
		c0,2.1,1.8,3.2,4.1,3.2c1.7,0,3.3-0.6,4.5-1.3V119.1z"/>
	<path class="st0" d="M452.2,130.6c-1.5,1-4.4,1.8-7.2,1.8c-3.3,0-6.3-1-8.3-3.2c-1.7-1.8-2.8-4.5-2.8-9.6v-11.8h-5.2v-8.2h5.2v-8.3
		l9.9-1.7v10h8.5v8.2h-8.5v10.7c0,3.1,0.7,5.5,3.7,5.5c1.6,0,3.4-0.7,4.7-1.3V130.6z"/>
	<path class="st0" d="M462.8,83.8c3.1,0,5.7,2.5,5.7,5.7s-2.6,5.7-5.7,5.7c-3.1,0-5.7-2.5-5.7-5.7S459.6,83.8,462.8,83.8z
		 M457.8,99.6h9.9v32h-9.9V99.6z"/>
	<path class="st0" d="M490.3,98.9c10.2,0,17.8,7.3,17.8,16.7c0,9.4-7.6,16.7-17.8,16.7s-17.8-7.3-17.8-16.7
		C472.5,106.2,480.1,98.9,490.3,98.9z M490.3,123.8c4.5,0,7.9-3.6,7.9-8.2c0-4.6-3.4-8.2-7.9-8.2s-7.9,3.6-7.9,8.2
		C482.4,120.2,485.9,123.8,490.3,123.8z"/>
	<path class="st0" d="M512.8,99.6h9.8v2.9l0.1,0.1c2.5-2,5.9-3.7,9.9-3.7c3.4,0,6.4,1.2,8.4,3.3c2,2.1,2.8,4.9,2.8,9.5v20h-9.9
		v-18.3c0-2.4-0.3-3.6-1.1-4.5c-0.8-1-2-1.4-3.4-1.4c-2.5,0-4.9,1.3-6.7,2.7v21.5h-9.9V99.6z"/>
</g>
<g>
	<path class="st0" d="M75.2,0C33.7,0,0,33.7,0,75.2c0,41.6,33.7,75.2,75.2,75.2c41.6,0,75.2-33.7,75.2-75.2
		C150.5,33.7,116.8,0,75.2,0z M68.5,132.3c-4.9,0-8.9-4-8.9-8.9c0-4.9,4-8.9,8.9-8.9c4.9,0,8.9,4,8.9,8.9
		C77.4,128.3,73.4,132.3,68.5,132.3z M92.8,80.1c-17.5,7.2-18.4,9.2-18.4,25.1l-11.6,0l-1.6-63.6c2.3-1.5,9.2-4.1,14.8-3.2L75,74.6
		c0.7-0.3,1.5-0.7,2.3-1c3.9-1.7,7.7-3.1,11.6-5c4.7-2.2,14.1-6.6,14.1-18.1c0-13.1-12.5-19.2-25-20.1c-0.2,0-0.4,0-0.5,0
		c0,0-0.1,0-0.1,0c-6.9-0.5-12.5,1.1-16.4,2.8l0,0c-0.6,0.2-1.1,0.5-1.6,0.8c-2.4,1.2-3.8,2.2-4,2.3l0,0c-1.4,1-2.6,2-3.7,3
		c-3.1,3-5.1,6.4-6.5,9.7l-13.6-3.1c1.6-4.5,4.1-9.2,8.5-14c9.1-9.7,22.4-13.6,35.6-13.6c26.3,0,43.1,14.8,43.1,33.4
		C118.9,69.3,104.2,75.4,92.8,80.1z"/>
</g>
</svg>
