<?xml version="1.0" encoding="utf-8"?>
<!-- Generator: Adobe Illustrator 20.0.0, SVG Export Plug-In . SVG Version: 6.00 Build 0)  -->
<svg version="1.1" id="Layer_1" xmlns="http://www.w3.org/2000/svg" xmlns:xlink="http://www.w3.org/1999/xlink" x="0px" y="0px"
	 viewBox="0 0 462 128.9" style="enable-background:new 0 0 462 128.9;" xml:space="preserve">
<style type="text/css">
	.Arched_x0020_Green{fill:url(#SVGID_1_);stroke:#FFFFFF;stroke-width:0.25;stroke-miterlimit:1;}
	.st0{fill:#C42576;}
	.st1{fill:#445668;}
</style>
<linearGradient id="SVGID_1_" gradientUnits="userSpaceOnUse" x1="-2466.2112" y1="676.4561" x2="-2465.5042" y2="675.749">
	<stop  offset="0" style="stop-color:#20AC4B"/>
	<stop  offset="0.9831" style="stop-color:#19361A"/>
</linearGradient>
<g>
	<g>
		<g>
			<path class="st0" d="M4.5,98.9c-0.5,0-1-0.1-1.6-0.3C1.2,98,0,96.3,0,94.4V4.5C0,2,2,0,4.5,0h29.7c14.6,0,24.1,1.7,31.8,5.8
				c6.9,3.6,18.6,12.4,18.6,30.6c0,12.8-6,23.7-16.6,30c-8.1,4.8-18.5,6.8-34.6,6.8h-4.8L7.9,97.3C7.1,98.4,5.8,98.9,4.5,98.9z M9,9
				v73.2l14-16.4c0.9-1,2.1-1.6,3.4-1.6h6.9c14.4,0,23.4-1.7,30-5.6c7.8-4.6,12.1-12.5,12.1-22.2c0-12.8-7.5-19.4-13.7-22.6
				C55.5,10.4,47.2,9,34.2,9H9z"/>
		</g>
	</g>
	<g>
		<g>
			<path class="st0" d="M28.7,128.9c-0.5,0-1-0.1-1.6-0.3c-1.8-0.7-2.9-2.3-2.9-4.2V34.5c0-2.5,2-4.5,4.5-4.5h29.7
				c14.6,0,24.1,1.7,31.8,5.8c6.9,3.6,18.6,12.4,18.6,30.6c0,12.8-6,23.7-16.6,30c-8.1,4.8-18.5,6.8-34.6,6.8h-4.8l-20.6,24.2
				C31.2,128.4,30,128.9,28.7,128.9z M33.2,39v73.2l14-16.4c0.9-1,2.1-1.6,3.4-1.6h6.9c14.4,0,23.4-1.7,30-5.6
				c7.8-4.6,12.1-12.5,12.1-22.2c0-12.8-7.5-19.4-13.7-22.6C79.6,40.4,71.4,39,58.4,39H33.2z"/>
		</g>
	</g>
	<g>
		<g>
			<path class="st1" d="M140.6,13.1h12.7c5.1,0,9.3,0.5,12.7,2.2c3.7,1.9,6.9,5.6,6.9,11.4c0,5.3-2.5,9-6.1,11.2
				c-3.3,1.9-7.6,2.7-13.8,2.7h-3v15.3h-9.4V13.1z M153.4,32.9c3.7,0,5.8-0.2,7.4-1.1c1.7-0.9,2.7-2.5,2.7-4.7c0-2.4-1.1-4.1-3-5
				c-1.7-0.8-4-0.9-7.3-0.9H150v11.6H153.4z"/>
			<path class="st1" d="M176,26.8h8.8v3.9l0.1,0.1c2-2.8,4.8-4.3,8.4-4.3c0.6,0,1.2,0.1,1.9,0.2v8.4c-0.7-0.2-1.6-0.3-2.4-0.3
				c-3.1,0-5.7,0.9-7.8,3.4v17.6h-9V26.8z"/>
			<path class="st1" d="M212.7,26.1c9.3,0,16.2,6.6,16.2,15.2s-6.9,15.2-16.2,15.2s-16.2-6.6-16.2-15.2S203.4,26.1,212.7,26.1z
				 M212.7,48.7c4.1,0,7.2-3.3,7.2-7.4c0-4.1-3.1-7.4-7.2-7.4s-7.2,3.3-7.2,7.4C205.5,45.4,208.6,48.7,212.7,48.7z"/>
			<path class="st1" d="M235.5,58.8c3,1.8,6.3,3,9.4,3c4.4,0,7.1-2.2,7.1-6.5v-1.6l-0.1-0.1c-1.7,1.2-4.4,1.9-6.8,1.9
				c-7,0-13.5-5.4-13.5-14.2c0-8.5,6.1-15.2,15.1-15.2c2.8,0,5.2,0.6,7.3,1.7l7-1.2v28.7c0,9.1-6.3,14.2-15.5,14.2
				c-3.7,0-7.4-0.9-9.9-2.1V58.8z M252,34.8c-1.1-0.6-2.8-1.1-4.4-1.1c-4.7,0-6.9,3.4-6.9,7.2c0,4.2,2.6,7.3,6.8,7.3
				c1.6,0,3.3-0.5,4.5-1.2V34.8z"/>
			<path class="st1" d="M267,26.8h8.8v3.9l0.1,0.1c2-2.8,4.8-4.3,8.4-4.3c0.6,0,1.2,0.1,1.9,0.2v8.4c-0.7-0.2-1.6-0.3-2.4-0.3
				c-3.1,0-5.7,0.9-7.8,3.4v17.6h-9V26.8z"/>
			<path class="st1" d="M296.8,43.7c1,4,4.3,5.8,8.4,5.8c3.2,0,6.8-1.1,9.9-3.2v7.5c-2.8,1.8-7.2,2.7-11,2.7c-9.6,0-16.5-6-16.5-15
				c0-9.3,7.2-15.3,15.2-15.3c7.1,0,13.9,4.7,13.9,14.5c0,1-0.1,2.3-0.2,3.1H296.8z M308.4,38c-0.5-3.1-2.8-5-5.7-5
				c-2.8,0-5.2,1.7-6,5H308.4z"/>
			<path class="st1" d="M320.9,46.2c4,2.4,8.7,3.4,11.4,3.4c2.5,0,4-0.6,4-2.2c0-2.2-3.2-2-7.6-3.1c-5.5-1.4-8.7-3.7-8.7-8.4
				c0.1-6.1,5.5-9.6,12.7-9.6c3.5,0,7.8,0.7,11.1,2.3v7.7c-3.8-2.2-8.3-3.1-10.9-3.1c-2.4,0-3.8,0.7-3.8,2.1c0,2.1,3.1,1.9,7.4,3
				c5.5,1.4,8.9,3.5,8.9,8.5c-0.1,6.4-5.6,9.9-13,9.9c-3.5,0-8-0.7-11.4-2.4V46.2z"/>
			<path class="st1" d="M349.1,46.2c4,2.4,8.7,3.4,11.4,3.4c2.5,0,4-0.6,4-2.2c0-2.2-3.2-2-7.6-3.1c-5.5-1.4-8.7-3.7-8.7-8.4
				c0.1-6.1,5.5-9.6,12.7-9.6c3.5,0,7.8,0.7,11.1,2.3v7.7C368.1,34,363.6,33,361,33c-2.4,0-3.8,0.7-3.8,2.1c0,2.1,3.1,1.9,7.4,3
				c5.5,1.4,8.9,3.5,8.9,8.5c-0.1,6.4-5.6,9.9-13,9.9c-3.5,0-8-0.7-11.4-2.4V46.2z"/>
			<path class="st1" d="M382.5,12.4c2.8,0,5.2,2.3,5.2,5.1c0,2.8-2.4,5.1-5.2,5.1c-2.8,0-5.2-2.3-5.2-5.1
				C377.3,14.7,379.7,12.4,382.5,12.4z M378,26.8h9v29h-9V26.8z"/>
			<path class="st1" d="M389.4,26.8h9.4l3.4,9.3c1.1,3.1,2.2,6.3,3.2,9.2h0.1c1.1-3,2.3-6.3,3.5-9.3l3.6-9.3h8.9l-11.8,29h-8.6
				L389.4,26.8z"/>
			<path class="st1" d="M430.4,43.7c1,4,4.3,5.8,8.4,5.8c3.2,0,6.8-1.1,9.9-3.2v7.5c-2.8,1.8-7.2,2.7-11,2.7c-9.6,0-16.5-6-16.5-15
				c0-9.3,7.2-15.3,15.2-15.3c7.1,0,13.9,4.7,13.9,14.5c0,1-0.1,2.3-0.2,3.1H430.4z M442,38c-0.5-3.1-2.8-5-5.7-5
				c-2.8,0-5.2,1.7-6,5H442z"/>
			<path class="st1" d="M140.6,70.9h12.7c5.1,0,9.3,0.5,12.7,2.2c3.7,1.9,6.9,5.6,6.9,11.4c0,5.3-2.5,9-6.1,11.2
				c-3.3,1.9-7.6,2.7-13.8,2.7h-3v15.3h-9.4V70.9z M153.4,90.7c3.7,0,5.8-0.2,7.4-1.1c1.7-0.9,2.7-2.5,2.7-4.7c0-2.4-1.1-4.1-3-5
				c-1.7-0.8-4-0.9-7.3-0.9H150v11.6H153.4z"/>
			<path class="st1" d="M195.2,110.8c-2.2,1.9-5.1,3.4-8.9,3.4c-3.4,0-5.9-1.2-7.6-2.9c-1.9-1.9-2.8-4.6-2.8-8.9V84.6h9v16.5
				c0,2.1,0.4,3.4,1.1,4.2c0.8,0.9,1.9,1.3,3.2,1.3c2.2,0,4.5-1.2,5.9-2.6V84.6h9v29h-8.9v-2.7L195.2,110.8z"/>
			<path class="st1" d="M210.3,84.6h8.9v2.7l0.1,0.1c2.2-1.8,5.3-3.4,9-3.4c3.1,0,5.8,1.1,7.6,3c1.8,1.9,2.5,4.4,2.5,8.6v18.1h-9V97
				c0-2.2-0.3-3.2-1-4.1c-0.8-0.9-1.8-1.2-3.1-1.2c-2.3,0-4.5,1.2-6.1,2.4v19.5h-9V84.6z"/>
			<path class="st1" d="M268.2,112c-2.8,1.5-6.2,2.2-9.5,2.2c-9.3,0-16.2-6.4-16.2-15.1c0-9.1,7.6-15.2,16.6-15.2
				c3.2,0,6.3,0.8,8.6,1.9v8.3c-2.6-1.7-5.4-2.7-8.2-2.7c-4.8,0-8.1,3.2-8.1,7.6c0,4.4,3.4,7.6,8.2,7.6c2.8,0,6.1-1.1,8.5-2.9V112z"
				/>
			<path class="st1" d="M291.9,112.7c-1.4,0.9-4,1.6-6.5,1.6c-3,0-5.7-0.9-7.6-2.9c-1.5-1.7-2.5-4.1-2.5-8.7V92h-4.7v-7.4h4.7V77
				l9-1.5v9.1h7.7V92h-7.7v9.7c0,2.8,0.6,5,3.4,5c1.5,0,3.1-0.6,4.3-1.2V112.7z"/>
			<path class="st1" d="M315.6,110.8c-2.2,1.9-5.1,3.4-8.9,3.4c-3.4,0-5.9-1.2-7.6-2.9c-1.9-1.9-2.8-4.6-2.8-8.9V84.6h9v16.5
				c0,2.1,0.4,3.4,1.1,4.2c0.8,0.9,1.9,1.3,3.2,1.3c2.2,0,4.5-1.2,5.9-2.6V84.6h9v29h-8.9v-2.7L315.6,110.8z"/>
			<path class="st1" d="M347.2,111.8c-1.9,1.4-4.8,2.4-8.1,2.4c-2.5,0-4.8-0.6-6.7-1.9c-2.1-1.5-3.4-3.8-3.4-6.8
				c0-3.2,1.5-5.6,3.5-7c2.2-1.5,5.1-2.1,8.1-2.1c1.7,0,3.4,0.2,5,0.5v-1.1c0-1.4-0.5-2.5-1.1-3.1c-0.8-0.8-2.4-1.2-4.5-1.2
				c-3.2,0-6.2,1.1-8.5,2.3v-7.7c2.4-1.2,5.9-2.2,10.1-2.2c3.9,0,7.4,0.9,9.7,2.8c2.2,1.8,3.2,4.4,3.2,8v9.9c0,1.4,0.5,2.3,1.8,2.3
				c0.5,0,1-0.1,1.5-0.4v6.7c-1,0.5-2.6,0.9-4.3,0.9c-2.4,0-4.7-0.6-6.3-2.3H347.2z M345.7,102.2c-0.9-0.3-2.2-0.4-3.2-0.4
				c-2.3,0-4.6,0.7-4.6,3c0,1.9,1.7,2.9,3.7,2.9c1.5,0,3-0.5,4.1-1.2V102.2z"/>
			<path class="st1" d="M379.6,112.7c-1.4,0.9-4,1.6-6.5,1.6c-3,0-5.7-0.9-7.6-2.9c-1.5-1.7-2.5-4.1-2.5-8.7V92h-4.7v-7.4h4.7V77
				l9-1.5v9.1h7.7V92h-7.7v9.7c0,2.8,0.6,5,3.4,5c1.5,0,3.1-0.6,4.3-1.2V112.7z"/>
			<path class="st1" d="M388.7,70.2c2.8,0,5.2,2.3,5.2,5.1c0,2.8-2.4,5.1-5.2,5.1c-2.8,0-5.2-2.3-5.2-5.1
				C383.5,72.5,385.8,70.2,388.7,70.2z M384.2,84.6h9v29h-9V84.6z"/>
			<path class="st1" d="M413.4,83.9c9.3,0,16.2,6.6,16.2,15.2s-6.9,15.2-16.2,15.2s-16.2-6.6-16.2-15.2S404.2,83.9,413.4,83.9z
				 M413.4,106.5c4.1,0,7.2-3.3,7.2-7.4c0-4.1-3.1-7.4-7.2-7.4s-7.2,3.3-7.2,7.4C406.2,103.2,409.4,106.5,413.4,106.5z"/>
			<path class="st1" d="M434,84.6h8.9v2.7l0.1,0.1c2.2-1.8,5.3-3.4,9-3.4c3.1,0,5.8,1.1,7.6,3c1.8,1.9,2.5,4.4,2.5,8.6v18.1h-9V97
				c0-2.2-0.3-3.2-1-4.1c-0.8-0.9-1.8-1.2-3.1-1.2c-2.3,0-4.5,1.2-6.1,2.4v19.5h-9V84.6z"/>
		</g>
	</g>
</g>
</svg>
