<?xml version="1.0" encoding="utf-8"?>
<!-- Generator: Adobe Illustrator 19.2.1, SVG Export Plug-In . SVG Version: 6.00 Build 0)  -->
<svg version="1.1" id="Layer_1" xmlns="http://www.w3.org/2000/svg" xmlns:xlink="http://www.w3.org/1999/xlink" x="0px" y="0px"
	 viewBox="0 0 108.8 128.9" style="enable-background:new 0 0 108.8 128.9;" xml:space="preserve">
<style type="text/css">
	.st0{fill:#C42576;}
</style>
<g>
	<g>
		<g>
			<path class="st0" d="M4.5,98.9c-0.5,0-1-0.1-1.6-0.3C1.2,98,0,96.3,0,94.4V4.5C0,2,2,0,4.5,0h29.7C48.8,0,58.3,1.7,66,5.8
				c6.9,3.6,18.6,12.4,18.6,30.6c0,12.8-6,23.7-16.6,30c-8.1,4.8-18.5,6.8-34.6,6.8h-4.8L7.9,97.3C7.1,98.4,5.8,98.9,4.5,98.9z M9,9
				v73.2l14-16.4c0.9-1,2.1-1.6,3.4-1.6h6.9c14.4,0,23.4-1.7,30-5.6c7.8-4.6,12.1-12.5,12.1-22.2c0-12.8-7.5-19.4-13.7-22.6
				C55.5,10.4,47.2,9,34.2,9H9z"/>
		</g>
	</g>
	<g>
		<g>
			<path class="st0" d="M28.7,128.9c-0.5,0-1-0.1-1.6-0.3c-1.8-0.7-2.9-2.3-2.9-4.2V34.5c0-2.5,2-4.5,4.5-4.5h29.7
				c14.6,0,24.1,1.7,31.8,5.8c6.9,3.6,18.6,12.4,18.6,30.6c0,12.8-6,23.7-16.6,30c-8.1,4.8-18.5,6.8-34.6,6.8h-4.8l-20.6,24.2
				C31.2,128.4,30,128.9,28.7,128.9z M33.2,39v73.2l14-16.4c0.9-1,2.1-1.6,3.4-1.6h6.9c14.4,0,23.4-1.7,30-5.6
				c7.8-4.6,12.1-12.5,12.1-22.2c0-12.8-7.5-19.4-13.7-22.6C79.6,40.4,71.4,39,58.4,39H33.2z"/>
		</g>
	</g>
</g>
</svg>
