<?xml version="1.0" encoding="utf-8"?>
<!-- Generator: Adobe Illustrator 20.0.0, SVG Export Plug-In . SVG Version: 6.00 Build 0)  -->
<svg version="1.1" id="Layer_1" xmlns="http://www.w3.org/2000/svg" xmlns:xlink="http://www.w3.org/1999/xlink" x="0px" y="0px"
	 viewBox="0 0 245.5 240" style="enable-background:new 0 0 245.5 240;" xml:space="preserve">
<style type="text/css">
	.st0{fill:#455568;}
</style>
<g>
	<path class="st0" d="M122.9,0.3c13,0,25.9-0.2,38.9-0.2C148.9,0,135.9,0.3,122.9,0.3c-18.2,0-36.3-0.5-54.5-0.1
		C86.6-0.2,104.8,0.2,122.9,0.3z"/>
	<path class="st0" d="M185.1,0.4C177.4,0.1,169.6,0,161.8,0c-13,0-25.9,0.2-38.9,0.2c-18.2,0-36.3-0.5-54.5-0.1
		c-2.6,0.1-5.2,0.1-7.8,0.2C27.6,1.7,0.5,29.8,0.3,62.8c-0.3,38.2-0.3,76.4,0,114.5c0.3,34.2,29.3,62.5,63.5,62.6
		c39.3,0.1,78.7,0.1,118,0c34.9-0.1,63.7-29,63.7-63.9c0-37.4,0-74.7,0-112.1C245.4,30.6,218.5,1.7,185.1,0.4z M178.2,218.4
		c-36.8,0.3-73.7,0.2-110.5,0c-25.7-0.1-45.1-19.4-45.3-45.1c-0.3-35.5-0.3-71,0-106.6c0.2-25.9,20-44.9,46-45c18.3,0,36.5,0,54.8,0
		c18.1,0,36.2,0,54.3,0c26.5,0,46,19.5,46,45.9c0,35,0,70,0,105.1C223.3,198.5,204.1,218.2,178.2,218.4z"/>
	<path class="st0" d="M122.9,58.3C88.9,58.2,61.1,85.8,61,120c-0.1,34.1,27.5,61.7,61.7,61.8c34.4,0,61.8-27.3,61.9-61.5
		C184.6,86,157.2,58.4,122.9,58.3z M122.4,159.6c-21.8-0.1-39.6-18.2-39.3-39.9c0.3-21.8,18.4-39.5,40.1-39.2
		c21.8,0.3,39.4,18.2,39.2,40C162.2,142.3,144.4,159.7,122.4,159.6z"/>
	<path class="st0" d="M187.9,41.2c-8,0-14.1,6.1-14.1,14.1c0,7.9,6.3,14,14.3,13.9c7.7-0.2,13.6-6.3,13.5-14.1
		C201.6,47.2,195.7,41.2,187.9,41.2z"/>
</g>
</svg>
