<?xml version="1.0" encoding="utf-8"?>
<!-- Generator: Adobe Illustrator 20.0.0, SVG Export Plug-In . SVG Version: 6.00 Build 0)  -->
<svg version="1.1" id="Layer_1" xmlns="http://www.w3.org/2000/svg" xmlns:xlink="http://www.w3.org/1999/xlink" x="0px" y="0px"
	 viewBox="0 0 294.3 240" style="enable-background:new 0 0 294.3 240;" xml:space="preserve">
<style type="text/css">
	.st0{fill:#455568;}
</style>
<g id="YeghHj_1_">
	<g>
		<path class="st0" d="M0.3,213c-0.1,0.2-0.2,0.4-0.3,0.6c5.3,2.8,10.6,5.7,15.9,8.5c12.9,6.7,26.7,11.2,40.8,14.2
			c14.1,3,28.3,3.9,42.7,3.4c20.5-0.7,40.2-4.7,59.2-12.4c20.4-8.3,38.5-20.3,54-35.9c11.1-11.1,20.4-23.4,28.1-37
			c7.4-13,13.2-26.6,17.2-41c4.7-16.7,7-33.7,6.3-51.1c-0.1-2,0.5-3.3,2.1-4.6c3.2-2.4,6.3-5,9.2-7.7c6.9-6.3,13-13.4,18.6-21.7
			c-11,4.4-21.6,7.9-33,8.7c11.8-8.1,20.2-18.5,24.8-32.2c-0.5,0-0.7-0.1-0.8,0c-0.9,0.4-1.9,0.9-2.7,1.4
			c-10.1,5.7-21,9.5-32.3,12.2c-1.8,0.4-2.9,0-4.1-1.2c-8.4-8.5-18.5-14-30.1-16.1c-20.1-3.8-38.2,0.9-53.3,14.9
			c-13.8,12.7-20.2,28.7-19.3,47.5c0.2,3.5,0.7,7,1.1,10.8c-50.6-3.5-92-24.7-125.1-63.6C4.8,42.8,10.7,69.5,37.4,91.8
			c-9.4-0.1-17.9-3-26.4-6.8c1.7,31,17.6,50.7,47.2,59.9c-4.3,0.8-8.6,1.5-12.9,1.6c-4.2,0.1-8.5-0.3-13.2-0.5
			c10.1,25.7,28.7,39.5,56.4,41.9C62,208,32.7,216,0.3,213z"/>
		<path class="st0" d="M0.3,213c32.5,3,61.7-5.1,88.2-25c-27.7-2.5-46.2-16.2-56.4-41.9c4.7,0.2,9,0.6,13.2,0.5
			c4.3-0.1,8.6-0.9,12.9-1.6C28.7,135.7,12.8,116,11.1,85c8.5,3.7,17,6.7,26.4,6.8c-26.8-22.3-32.6-49-18.2-80.9
			c33.1,38.9,74.5,60.1,125.1,63.6c-0.4-3.9-0.9-7.3-1.1-10.8c-0.9-18.8,5.6-34.8,19.3-47.5c15.1-14,33.2-18.6,53.3-14.9
			c11.6,2.2,21.7,7.6,30.1,16.1c1.2,1.2,2.3,1.6,4.1,1.2c11.3-2.6,22.2-6.4,32.3-12.2c0.9-0.5,1.8-0.9,2.7-1.4c0.1-0.1,0.3,0,0.8,0
			c-4.6,13.7-13.1,24.1-24.8,32.2c11.4-0.8,22.1-4.3,33-8.7c-5.6,8.4-11.7,15.4-18.6,21.7c-3,2.7-6.1,5.2-9.2,7.7
			c-1.6,1.2-2.2,2.5-2.1,4.6c0.7,17.4-1.6,34.4-6.3,51.1c-4,14.3-9.8,28-17.2,41c-7.8,13.6-17.1,26-28.1,37
			c-15.6,15.6-33.6,27.6-54,35.9c-19,7.7-38.8,11.7-59.2,12.4c-14.4,0.5-28.6-0.4-42.7-3.4c-14.2-3-27.9-7.5-40.8-14.2
			c-5.3-2.8-10.6-5.7-15.9-8.5C0.1,213.4,0.2,213.2,0.3,213z"/>
	</g>
</g>
</svg>
