<?xml version="1.0" encoding="utf-8"?>
<!-- Generator: Adobe Illustrator 21.1.0, SVG Export Plug-In . SVG Version: 6.00 Build 0)  -->
<svg version="1.1" id="Layer_1" xmlns="http://www.w3.org/2000/svg" xmlns:xlink="http://www.w3.org/1999/xlink" x="0px" y="0px"
	 viewBox="0 0 108.8 128.9" style="enable-background:new 0 0 108.8 128.9;" xml:space="preserve">
<style type="text/css">
	.st0{fill:#C42576;}
</style>
<path class="st0" d="M90.2,35.8c-1.8-1-3.7-1.8-5.7-2.5C83.3,17.2,72.5,9.2,66,5.8C58.3,1.7,48.8,0,34.2,0H4.5C2,0,0,2,0,4.5v89.9
	c0,1.9,1.2,3.6,2.9,4.2c0.6,0.2,1.1,0.3,1.6,0.3c1.3,0,2.6-0.5,3.4-1.6l16.3-19v46.1c0,1.9,1.1,3.5,2.9,4.2c0.6,0.2,1.1,0.3,1.6,0.3
	c1.3,0,2.5-0.5,3.5-1.5l20.6-24.2h4.8c16.1,0,26.5-2,34.6-6.8c10.6-6.3,16.6-17.2,16.6-30C108.8,48.2,97.1,39.4,90.2,35.8z M23,65.8
	L9,82.2V9h25.2c13,0,21.3,1.4,27.5,4.8C67,16.5,73.1,21.7,74.9,31c-4.7-0.7-10.1-1-16.5-1H28.7c-2.5,0-4.5,2-4.5,4.5v30.3
	C23.8,65.1,23.4,65.4,23,65.8z M75.2,40.2c-1,7.9-5.1,14.4-11.9,18.4c-6.6,3.9-15.6,5.6-30,5.6h-0.1V39h25.2
	C65.1,39,70.6,39.4,75.2,40.2z M87.5,88.6c-6.6,3.9-15.6,5.6-30,5.6h-6.9c-1.3,0-2.5,0.6-3.4,1.6l-14,16.4v-39h0.2
	c16.1,0,26.5-2,34.6-6.8c8.8-5.2,14.4-13.5,16.1-23.5c0.6,0.3,1.3,0.6,1.8,0.9c6.2,3.2,13.7,9.8,13.7,22.6
	C99.6,76.1,95.3,84,87.5,88.6z"/>
</svg>
