<?xml version="1.0" encoding="utf-8"?>
<!-- Generator: Adobe Illustrator 21.0.2, SVG Export Plug-In . SVG Version: 6.00 Build 0)  -->
<svg version="1.1" id="Layer_1" xmlns="http://www.w3.org/2000/svg" xmlns:xlink="http://www.w3.org/1999/xlink" x="0px" y="0px"
	 viewBox="0 0 194 165.3" style="enable-background:new 0 0 194 165.3;" xml:space="preserve">
<style type="text/css">
	.st0{fill:#435568;}
</style>
<g>
	<path class="st0" d="M170,0l24,19.8c-26.4,18.2-46.3,50.5-47.9,76.9c0.8-0.8,5.8-1.7,8.3-1.7c19.8,0,33.9,14.9,33.9,34.7
		c-0.1,19.1-15.8,35.6-35.6,35.6c-22.3,0-42.1-19-42.1-52.9C110.5,66.1,137.8,22.3,170,0z M58.7,0l24.8,19.8
		C57.1,38,36.4,70.2,34.7,96.7c0.8-0.8,5.8-1.7,9.1-1.7c19,0,33.1,14.9,33.1,34.7c0,19-14.9,35.5-35.5,35.5
		C19,165.3,0,146.3,0,112.4C0,66.1,26.5,22.3,58.7,0z"/>
</g>
</svg>
