<?xml version="1.0" encoding="utf-8"?>
<!-- Generator: Adobe Illustrator 19.1.0, SVG Export Plug-In . SVG Version: 6.00 Build 0)  -->
<!DOCTYPE svg PUBLIC "-//W3C//DTD SVG 1.1//EN" "http://www.w3.org/Graphics/SVG/1.1/DTD/svg11.dtd">
<svg version="1.1" id="Layer_1" xmlns="http://www.w3.org/2000/svg" xmlns:xlink="http://www.w3.org/1999/xlink" x="0px" y="0px"
	 viewBox="0 0 18.6 20" style="enable-background:new 0 0 18.6 20;" xml:space="preserve">
<style type="text/css">
	.st0{fill:#231F20;}
</style>
<path class="st0" d="M18.4,10.9l-8.5,8.5c0,0,0,0,0,0L9.3,20l-0.6-0.6c0,0,0,0,0,0l-8.5-8.5c-0.3-0.3-0.3-0.8,0-1.2s0.8-0.3,1.2,0
	l7.1,7.1v-16C8.5,0.4,8.9,0,9.3,0c0.5,0,0.8,0.4,0.8,0.8v16l7.1-7.1c0.3-0.3,0.8-0.3,1.2,0C18.7,10.1,18.7,10.6,18.4,10.9z"/>
</svg>
