<?xml version="1.0" encoding="utf-8"?>
<!-- Generator: Adobe Illustrator 20.0.0, SVG Export Plug-In . SVG Version: 6.00 Build 0)  -->
<svg version="1.1" id="Layer_1" xmlns="http://www.w3.org/2000/svg" xmlns:xlink="http://www.w3.org/1999/xlink" x="0px" y="0px"
	 viewBox="0 0 81.9 142" style="enable-background:new 0 0 81.9 142;" xml:space="preserve">
<style type="text/css">
	.st0{fill:#303D4D;}
</style>
<g>
	<path class="st0" d="M41.1,120c-6,0-11,5-11,11c0,5.8,5,11,11,11c6,0,11-5.2,11-11C52.1,125,47.1,120,41.1,120z"/>
	<path class="st0" d="M69.7,11.2C62,4,51.8,0,41,0c0,0,0,0-0.1,0C30,0,19.8,4,12.1,11.2C4.3,18.6,0,28.4,0,38.8l13,0
		c0-6.8,2.8-13.2,8-18.1c3.1-2.9,6.9-5.1,11-6.4l2.9,88.2h12.4l2.9-88.1c3.9,1.3,7.6,3.4,10.6,6.2c5.2,4.8,8,11.3,8,18.1l13,0
		C81.9,28.3,77.6,18.5,69.7,11.2z"/>
</g>
</svg>
