<?xml version="1.0" encoding="utf-8"?>
<!-- Generator: Adobe Illustrator 20.0.0, SVG Export Plug-In . SVG Version: 6.00 Build 0)  -->
<svg version="1.1" id="Layer_1" xmlns="http://www.w3.org/2000/svg" xmlns:xlink="http://www.w3.org/1999/xlink" x="0px" y="0px"
	 viewBox="0 0 79.5 140.7" style="enable-background:new 0 0 79.5 140.7;" xml:space="preserve">
<style type="text/css">
	.st0{fill:#C42576;}
</style>
<g>
	<path class="st0" d="M39.7,118.7c-6,0-11,5-11,11c0,5.8,5,11,11,11c6,0,11-5.2,11-11C50.7,123.7,45.7,118.7,39.7,118.7z"/>
	<path class="st0" d="M41.7,56.6l37.8-36.9L70.3,7.4l-0.8,0.8C51.8,18.7,30.9-9.8,9.7,3.7C4.5,7.1,1,11.9,0,19l11.1,7.4
		c0.2-4.2,2.6-7.8,5.3-9.6c10.7-6.9,23.4,3.3,38,6.8L19.4,59l6.6,8.8l0.1-0.1c1.8,0,24.2-0.1,18.2,16.8
		c-1.3,3.5-10.1,19.6-10.1,19.6h14.8c0,0,6.6-11.4,7.8-15C64,68.4,52.4,60,41.7,56.6z"/>
</g>
</svg>
