<?xml version="1.0" encoding="utf-8"?>
<!-- Generator: Adobe Illustrator 20.0.0, SVG Export Plug-In . SVG Version: 6.00 Build 0)  -->
<svg version="1.1" id="Layer_1" xmlns="http://www.w3.org/2000/svg" xmlns:xlink="http://www.w3.org/1999/xlink" x="0px" y="0px"
	 viewBox="0 0 20.6 142.8" style="enable-background:new 0 0 20.6 142.8;" xml:space="preserve">
<style type="text/css">
	.st0{fill:#303D4D;}
</style>
<g>
	<path class="st0" d="M10.3,122.2c-5.6,0-10.3,4.7-10.3,10.3c0,5.4,4.7,10.3,10.3,10.3c5.6,0,10.3-4.9,10.3-10.3
		C20.6,126.9,15.9,122.2,10.3,122.2z"/>
	<path class="st0" d="M10.3,20.6c5.6,0,10.3-4.9,10.3-10.3C20.6,4.7,15.9,0,10.3,0C4.7,0,0,4.7,0,10.3C0,15.7,4.7,20.6,10.3,20.6z"
		/>
	<polygon class="st0" points="3.2,32.2 4.5,71.4 3.2,110.6 17.4,110.6 16.1,71.4 17.4,32.2 	"/>
</g>
</svg>
