<?xml version="1.0" encoding="utf-8"?>
<!-- Generator: Adobe Illustrator 20.0.0, SVG Export Plug-In . SVG Version: 6.00 Build 0)  -->
<svg version="1.1" id="Layer_1" xmlns="http://www.w3.org/2000/svg" xmlns:xlink="http://www.w3.org/1999/xlink" x="0px" y="0px"
	 viewBox="0 0 81.9 49.7" style="enable-background:new 0 0 81.9 49.7;" xml:space="preserve">
<style type="text/css">
	.st0{fill:#C42576;}
</style>
<g>
	<path class="st0" d="M29.7,11c0-6,5-11,11-11c6,0,11,5,11,11c0,6-5,11-11,11C34.7,22,29.7,17,29.7,11z"/>
</g>
<g>
	<path class="st0" d="M40.9,49.7c-10.8,0-21-4-28.8-11.2C4.3,31.2,0,21.5,0,11l13,0c0,6.8,2.9,13.2,8,18.1
		c5.3,4.9,12.4,7.7,19.9,7.7c0,0,0,0,0,0c7.5,0,14.6-2.7,19.9-7.7c5.2-4.9,8-11.3,8-18.1l13,0c0,10.4-4.3,20.2-12.1,27.6
		C62.1,45.7,51.8,49.7,40.9,49.7C41,49.7,40.9,49.7,40.9,49.7z"/>
</g>
</svg>
