<?xml version="1.0" encoding="utf-8"?>
<!-- Generator: Adobe Illustrator 20.0.0, SVG Export Plug-In . SVG Version: 6.00 Build 0)  -->
<svg version="1.1" id="Layer_1" xmlns="http://www.w3.org/2000/svg" xmlns:xlink="http://www.w3.org/1999/xlink" x="0px" y="0px"
	 viewBox="0 0 82.6 135.4" style="enable-background:new 0 0 82.6 135.4;" xml:space="preserve">
<style type="text/css">
	.st0{fill:#445668;}
</style>
<g>
	<path class="st0" d="M40.2,113.4c-6,0-11,5-11,11c0,5.8,5,11,11,11c6,0,11-5.2,11-11C51.2,118.4,46.2,113.4,40.2,113.4z"/>
	<path class="st0" d="M49.1,13.2L49.6,0H30.8l0.5,14.1C18,16.7,7.4,23.5,0,33.3l10,10.8c5.6-7.5,12.3-13,21.7-15.3L34,96h12.4
		c0-19.6,36.2-21.9,36.2-52.1C82.6,28.1,70.1,15.2,49.1,13.2z M47.2,71.7l1.4-43.4c11.2,2.1,16.8,9.5,16.8,18
		C65.4,58,55.8,64.2,47.2,71.7z"/>
</g>
</svg>
