<?xml version="1.0" encoding="utf-8"?>
<!-- Generator: Adobe Illustrator 20.0.0, SVG Export Plug-In . SVG Version: 6.00 Build 0)  -->
<svg version="1.1" id="Layer_1" xmlns="http://www.w3.org/2000/svg" xmlns:xlink="http://www.w3.org/1999/xlink" x="0px" y="0px"
	 viewBox="0 0 66.5 140.4" style="enable-background:new 0 0 66.5 140.4;" xml:space="preserve">
<style type="text/css">
	.st0{fill:#445668;}
</style>
<g>
	<g>
		<path class="st0" d="M42.1,129.4c0-6,5-11,11-11c6,0,11,5,11,11c0,6-5,11-11,11C47.1,140.4,42.1,135.4,42.1,129.4z"/>
	</g>
	<path class="st0" d="M46.7,66.9c-0.7,0.4-1.4,0.8-2.1,1.2l0,0c-12.5,6.7-21.4,5.3-25.5,1.4c-3.8-3.5-4-9.3-0.7-14.6
		c2.1-3.4,8.5-9,14.7-14.4C44.1,31,61.4,16.2,66.5,0H49.1c-5.3,9.9-16.6,19.8-26.6,28.6c-7.7,6.7-14.4,12.6-17.8,18
		c-7.4,11.9-6.1,25.8,3.3,34.7c4.8,4.5,11.8,7.6,20.5,7.6c5,0,10.5-1,16.5-3.4l0.6,18.5h14.8l1.4-48.2
		C56.8,59.8,51.7,63.9,46.7,66.9C46.7,66.9,46.7,66.9,46.7,66.9z"/>
</g>
</svg>
