<?xml version="1.0" encoding="utf-8"?>
<!-- Generator: Adobe Illustrator 20.0.0, SVG Export Plug-In . SVG Version: 6.00 Build 0)  -->
<svg version="1.1" id="Layer_1" xmlns="http://www.w3.org/2000/svg" xmlns:xlink="http://www.w3.org/1999/xlink" x="0px" y="0px"
	 viewBox="0 0 143.2 135.4" style="enable-background:new 0 0 143.2 135.4;" xml:space="preserve">
<style type="text/css">
	.st0{fill:#C42576;}
</style>
<g>
	<path class="st0" d="M111,1.5C96-1.8,82.6,0.4,71.6,6.8c-11-6.4-24.4-8.6-39.4-5.3C8.4,6.9-3,23.5,0.7,40.3
		c6.6,29.5,44.8,23.6,49.1,42.7c0.7,3.1-0.2,7.4-3,10.5l13.1,2.6c4.3-5.7,5.2-11.6,3.8-17.7C58.2,53.7,22.6,59.6,18,38.9
		c-2.2-9.8,3.6-19.9,18.8-23.2c14.8-3.3,25.4,0.9,34.8,9l0,0l0,0c9.4-8.1,20-12.4,34.8-9c15.2,3.4,21,13.5,18.8,23.2
		C120.6,59.6,85,53.7,79.5,78.5c-1.3,6.1-0.4,12,3.8,17.7l13.1-2.6c-2.8-3.1-3.7-7.4-3-10.5c4.3-19.1,42.5-13.3,49.1-42.7
		C146.3,23.5,134.8,6.9,111,1.5z"/>
	<path class="st0" d="M69.5,113.7c-5.9,1.3-9.6,7.3-8.3,13.1c1.3,5.9,7.3,9.6,13.1,8.3c5.9-1.3,9.6-7.3,8.3-13.1
		C81.3,116.2,75.3,112.4,69.5,113.7z"/>
</g>
</svg>
