<?xml version="1.0" encoding="utf-8"?>
<!-- Generator: Adobe Illustrator 20.0.0, SVG Export Plug-In . SVG Version: 6.00 Build 0)  -->
<svg version="1.1" id="Layer_1" xmlns="http://www.w3.org/2000/svg" xmlns:xlink="http://www.w3.org/1999/xlink" x="0px" y="0px"
	 viewBox="0 0 82.6 160.8" style="enable-background:new 0 0 82.6 160.8;" xml:space="preserve">
<style type="text/css">
	.st0{fill:#C42576;}
</style>
<g>
	<g>
		<g>
			<path class="st0" d="M29.4,82c0-25.4,36-27.4,36-48.6c0-10-7.8-18.6-23.4-18.6c-15.2,0-24.6,6.4-32,16.4L0,20.4
				C9.6,7.8,24.4,0,43.4,0c24.4,0,39.2,13.8,39.2,31C82.6,61.2,44,63.8,44,83.4c0,3.2,1.8,7.2,5.2,9.6L37,98.4
				C31.6,93.8,29.4,88.2,29.4,82z"/>
		</g>
	</g>
	<g>
		<path class="st0" d="M37.3,160.8l-7.6-6.2c6.4-4.2,12.2-12,13-18.6c-0.4,0.2-1.8,0.4-2.8,0.4c-5.4,0-9.6-4.4-9.6-10.2
			s4.6-10.8,10.6-10.8c6.8,0,12.6,5.6,12.6,15.2C53.5,142.8,46.5,154.2,37.3,160.8z"/>
	</g>
</g>
</svg>
