<?xml version="1.0" encoding="utf-8"?>
<!-- Generator: Adobe Illustrator 20.0.0, SVG Export Plug-In . SVG Version: 6.00 Build 0)  -->
<svg version="1.1" id="Layer_1" xmlns="http://www.w3.org/2000/svg" xmlns:xlink="http://www.w3.org/1999/xlink" x="0px" y="0px"
	 viewBox="0 0 114.5 137.3" style="enable-background:new 0 0 114.5 137.3;" xml:space="preserve">
<style type="text/css">
	.st0{fill:#445668;}
</style>
<path class="st0" d="M68.3,88.6c0,6-5,11.1-11.1,11.1c-6,0-11.1-5-11.1-11.1c0-6,5-11.1,11.1-11.1C63.3,77.5,68.3,82.5,68.3,88.6z
	 M54.8,0C41.3,0,29,4.7,19.2,12.5l8.2,11.5c7.4-6.2,17.4-9.4,27.8-9.4c28.7,0,44.2,28.6,44.2,58c0,31-17.6,50.5-42.6,50.5
	c-23.5,0-42.7-19.1-42.7-42.6l0,0c0-9.1,2.6-16.4,7.5-21.4c4-3.9,9.4-6.2,14.9-6.2c6.4,0,13.2,2.5,13.2,9.7h14.1
	c0-13.8-11-23.8-27.3-23.8c-9.2,0-18.2,3.8-24.8,10.3C6.4,54.5,0,64.3,0,80.5l0,0c0,31.3,25.5,56.7,56.8,56.7
	c32.4,0,57.7-20.6,57.7-67.8C114.5,28.2,89.7,0,54.8,0z"/>
</svg>
