<?xml version="1.0" encoding="utf-8"?>
<!-- Generator: Adobe Illustrator 20.0.0, SVG Export Plug-In . SVG Version: 6.00 Build 0)  -->
<svg version="1.1" id="Layer_1" xmlns="http://www.w3.org/2000/svg" xmlns:xlink="http://www.w3.org/1999/xlink" x="0px" y="0px"
	 viewBox="0 0 53.5 136.7" style="enable-background:new 0 0 53.5 136.7;" xml:space="preserve">
<style type="text/css">
	.st0{fill:#303D4D;}
</style>
<g>
	<path class="st0" d="M51.4,121.3c-24.5-2.4-36.4-7.1-36.4-14.4c0-5.1,5.4-7.4,14.3-10.6c10.6-3.8,23.7-8.5,23.7-24
		c0-22-26.4-27.3-49.4-29.4l-2-0.2L0,57.7l2,0.2c24.6,2.4,36.6,7.1,36.6,14.4c0,5.1-5.4,7.4-14.4,10.6c-10.6,3.8-23.8,8.5-23.8,24
		c0,22.5,28.1,27.7,49.2,29.6l1.9,0.2l1.9-15.2L51.4,121.3z"/>
	<path class="st0" d="M26.6,22c6,0,11-5,11-11s-5-11-11-11s-11,5-11,11S20.6,22,26.6,22z"/>
</g>
<g>
	<g>
		<defs>
			<rect id="SVGID_1_" x="-729.2" y="-79.4" width="686.5" height="488.2"/>
		</defs>
		<clipPath id="SVGID_2_">
			<use xlink:href="#SVGID_1_"  style="overflow:visible;"/>
		</clipPath>
	</g>
</g>
</svg>
